<svg width="110" height="17" viewBox="0 0 110 17" fill="none" xmlns="http://www.w3.org/2000/svg">
<path d="M32.0126 13.6975L36.1626 16.2075C36.9226 16.6675 37.8526 15.9875 37.6526 15.1275L36.5526 10.4075L40.2226 7.2275C40.8926 6.6475 40.5326 5.5475 39.6526 5.4775L34.8226 5.0675L32.9326 0.6075C32.5926 -0.2025 31.4327 -0.2025 31.0926 0.6075L29.2026 5.0575L24.3726 5.4675C23.4926 5.5375 23.1326 6.6375 23.8026 7.2175L27.4726 10.3975L26.3726 15.1175C26.1726 15.9775 27.1026 16.6575 27.8626 16.1975L32.0126 13.6975Z" fill="#FCFF51"/>
<path d="M78.0126 13.6975L82.1626 16.2075C82.9226 16.6675 83.8526 15.9875 83.6526 15.1275L82.5526 10.4075L86.2226 7.2275C86.8926 6.6475 86.5326 5.5475 85.6526 5.4775L80.8226 5.0675L78.9326 0.6075C78.5926 -0.2025 77.4327 -0.2025 77.0926 0.6075L75.2026 5.0575L70.3726 5.4675C69.4926 5.5375 69.1326 6.6375 69.8026 7.2175L73.4726 10.3975L72.3726 15.1175C72.1726 15.9775 73.1026 16.6575 73.8626 16.1975L78.0126 13.6975Z" fill="#FCFF51"/>
<path d="M55.0126 13.6975L59.1626 16.2075C59.9226 16.6675 60.8526 15.9875 60.6526 15.1275L59.5526 10.4075L63.2226 7.2275C63.8926 6.6475 63.5326 5.5475 62.6526 5.4775L57.8226 5.0675L55.9326 0.6075C55.5926 -0.2025 54.4327 -0.2025 54.0926 0.6075L52.2026 5.0575L47.3726 5.4675C46.4926 5.5375 46.1326 6.6375 46.8026 7.2175L50.4726 10.3975L49.3726 15.1175C49.1726 15.9775 50.1026 16.6575 50.8626 16.1975L55.0126 13.6975Z" fill="#FCFF51"/>
<path d="M9.01265 13.6975L13.1626 16.2075C13.9226 16.6675 14.8526 15.9875 14.6526 15.1275L13.5526 10.4075L17.2226 7.2275C17.8926 6.6475 17.5326 5.5475 16.6526 5.4775L11.8226 5.0675L9.93265 0.6075C9.59265 -0.2025 8.43265 -0.2025 8.09265 0.6075L6.20265 5.0575L1.37265 5.4675C0.492646 5.5375 0.132646 6.6375 0.802646 7.2175L4.47265 10.3975L3.37265 15.1175C3.17265 15.9775 4.10265 16.6575 4.86265 16.1975L9.01265 13.6975Z" fill="#FCFF51"/>
<path d="M101.013 13.6975L105.163 16.2075C105.923 16.6675 106.853 15.9875 106.653 15.1275L105.553 10.4075L109.223 7.2275C109.893 6.6475 109.533 5.5475 108.653 5.4775L103.823 5.0675L101.933 0.6075C101.593 -0.2025 100.433 -0.2025 100.093 0.6075L98.2026 5.0575L93.3726 5.4675C92.4926 5.5375 92.1326 6.6375 92.8026 7.2175L96.4726 10.3975L95.3726 15.1175C95.1726 15.9775 96.1026 16.6575 96.8626 16.1975L101.013 13.6975Z" fill="#FCFF51"/>
</svg>
